<svg xmlns="http://www.w3.org/2000/svg" viewBox="0 0 219.16 325.94"><defs><style>.cls-1{fill:#70bfde;}.cls-2{fill:#5795ad;}.cls-3{fill:none;stroke:#2c2c2c;stroke-linecap:round;stroke-linejoin:round;stroke-width:6px;}.cls-4{fill:#f38079;}.cls-5{fill:#b7e4f5;}.cls-6{fill:#30c1e9;}.cls-7{fill:#2c2c2c;}.cls-8{fill:#ffcd44;}.cls-9{fill:#f8bbb7;}.cls-10{fill:#fff;}</style></defs><title>Fichier 1</title><g id="Calque_2" data-name="Calque 2"><g id="Calque_1-2" data-name="Calque 1"><path class="cls-1" d="M160.29,232.16h-121a9,9,0,0,1-9-9V12a9,9,0,0,1,9-9H179.84a9,9,0,0,1,9,9V203.58Z"/><path class="cls-2" d="M161.17,232.16H48.64a8.76,8.76,0,0,1-8.76-8.76V11.76A8.76,8.76,0,0,1,48.64,3H180.12a8.76,8.76,0,0,1,8.75,8.76V204.45Z"/><path class="cls-3" d="M160.29,232.16h-121a9,9,0,0,1-9-9V12a9,9,0,0,1,9-9H179.84a9,9,0,0,1,9,9V203.58Z"/><rect class="cls-4" x="41.35" y="14.06" width="136.45" height="118.89"/><rect class="cls-3" x="41.35" y="14.06" width="136.45" height="118.89"/><rect class="cls-5" x="52.42" y="25.13" width="114.33" height="96.76"/><rect class="cls-6" x="64.96" y="25.13" width="101.79" height="96.76"/><rect class="cls-3" x="52.42" y="25.13" width="114.33" height="96.76"/><path class="cls-7" d="M94.14,71.18A10.88,10.88,0,1,1,83.26,60.3,10.88,10.88,0,0,1,94.14,71.18Z"/><path class="cls-7" d="M146.78,71.18A10.88,10.88,0,1,1,135.9,60.3,10.88,10.88,0,0,1,146.78,71.18Z"/><polygon class="cls-4" points="84.87 169.09 74.92 169.09 74.92 159.14 55 159.14 55 169.09 45.04 169.09 45.04 189.01 55 189.01 55 198.97 74.92 198.97 74.92 189.01 84.87 189.01 84.87 169.09"/><path class="cls-4" d="M151.63,181.45a10.15,10.15,0,1,1-10.15-10.14A10.15,10.15,0,0,1,151.63,181.45Z"/><path class="cls-4" d="M176.89,165.32a10.15,10.15,0,1,1-10.14-10.14A10.14,10.14,0,0,1,176.89,165.32Z"/><polygon class="cls-3" points="84.87 169.09 74.92 169.09 74.92 159.14 55 159.14 55 169.09 45.04 169.09 45.04 189.01 55 189.01 55 198.97 74.92 198.97 74.92 189.01 84.87 189.01 84.87 169.09"/><path class="cls-3" d="M151.63,181.45a10.15,10.15,0,1,1-10.15-10.14A10.15,10.15,0,0,1,151.63,181.45Z"/><path class="cls-3" d="M176.89,165.32a10.15,10.15,0,1,1-10.14-10.14A10.14,10.14,0,0,1,176.89,165.32Z"/><path class="cls-6" d="M128.83,221.09H118.5a3.87,3.87,0,0,1-3.87-3.87h0a3.87,3.87,0,0,1,3.87-3.87h10.33a3.87,3.87,0,0,1,3.87,3.87h0A3.87,3.87,0,0,1,128.83,221.09Z"/><path class="cls-6" d="M100.66,221.09H90.34a3.87,3.87,0,0,1-3.87-3.87h0a3.87,3.87,0,0,1,3.87-3.87h10.32a3.88,3.88,0,0,1,3.88,3.87h0A3.88,3.88,0,0,1,100.66,221.09Z"/><path class="cls-3" d="M128.83,221.09H118.5a3.87,3.87,0,0,1-3.87-3.87h0a3.87,3.87,0,0,1,3.87-3.87h10.33a3.87,3.87,0,0,1,3.87,3.87h0A3.87,3.87,0,0,1,128.83,221.09Z"/><path class="cls-3" d="M100.66,221.09H90.34a3.87,3.87,0,0,1-3.87-3.87h0a3.87,3.87,0,0,1,3.87-3.87h10.32a3.88,3.88,0,0,1,3.88,3.87h0A3.88,3.88,0,0,1,100.66,221.09Z"/><path class="cls-2" d="M64.68,232.16H90.49a0,0,0,0,1,0,0v4.61a5.35,5.35,0,0,1-5.35,5.35H70a5.35,5.35,0,0,1-5.35-5.35v-4.61A0,0,0,0,1,64.68,232.16Z"/><path class="cls-2" d="M128.67,232.16h25.82a0,0,0,0,1,0,0v4.61a5.35,5.35,0,0,1-5.35,5.35H134a5.35,5.35,0,0,1-5.35-5.35v-4.61A0,0,0,0,1,128.67,232.16Z"/><path class="cls-3" d="M64.68,232.16H90.49a0,0,0,0,1,0,0v4.61a5.35,5.35,0,0,1-5.35,5.35H70a5.35,5.35,0,0,1-5.35-5.35v-4.61A0,0,0,0,1,64.68,232.16Z"/><path class="cls-8" d="M84.75,242.12v28.63a11.92,11.92,0,0,0-14.32,0V242.12Z"/><path class="cls-8" d="M148.74,242.12v28.63a11.92,11.92,0,0,0-14.32,0V242.12Z"/><path class="cls-3" d="M84.75,242.12v28.63a11.92,11.92,0,0,0-14.32,0V242.12Z"/><path class="cls-9" d="M75.77,289.69H79.4a18.22,18.22,0,0,1,18.22,18.22v15a0,0,0,0,1,0,0H57.55a0,0,0,0,1,0,0v-15A18.22,18.22,0,0,1,75.77,289.69Z"/><rect class="cls-10" x="57.55" y="312.86" width="40.08" height="10.08"/><path class="cls-9" d="M89.51,280.28v12.47a18.15,18.15,0,0,0-10.11-3.06H75.77a18.12,18.12,0,0,0-10.1,3.06V280.28a11.92,11.92,0,0,1,23.84,0Z"/><path class="cls-9" d="M139.76,289.69h3.63a18.22,18.22,0,0,1,18.22,18.22v15a0,0,0,0,1,0,0H121.54a0,0,0,0,1,0,0v-15A18.22,18.22,0,0,1,139.76,289.69Z"/><rect class="cls-10" x="121.54" y="312.86" width="40.08" height="10.08"/><path class="cls-9" d="M153.5,280.28v12.47a18.15,18.15,0,0,0-10.11-3.06h-3.63a18.12,18.12,0,0,0-10.1,3.06V280.28a11.92,11.92,0,1,1,23.84,0Z"/><path class="cls-4" d="M81.21,289.69h0A16.41,16.41,0,0,0,64.8,306.1v16.84H97.63V306.1A16.42,16.42,0,0,0,81.21,289.69Z"/><rect class="cls-10" x="64.8" y="312.86" width="32.82" height="10.08"/><path class="cls-4" d="M91,280.28v12.47a13.06,13.06,0,0,0-8.28-3.06h-3a13,13,0,0,0-8.28,3.06V280.28c0-6.58,4.37-11.92,9.76-11.92S91,273.7,91,280.28Z"/><path class="cls-4" d="M144.76,289.69h.19a16.67,16.67,0,0,1,16.67,16.67v16.58a0,0,0,0,1,0,0H128.09a0,0,0,0,1,0,0V306.36A16.67,16.67,0,0,1,144.76,289.69Z"/><rect class="cls-10" x="128.09" y="312.86" width="33.53" height="10.08"/><path class="cls-4" d="M154.82,280.28v12.47a13.46,13.46,0,0,0-8.45-3.06h-3a13.5,13.5,0,0,0-8.45,3.06V280.28c0-6.58,4.46-11.92,10-11.92S154.82,273.7,154.82,280.28Z"/><path class="cls-3" d="M75.77,289.69H79.4a18.22,18.22,0,0,1,18.22,18.22v15a0,0,0,0,1,0,0H57.55a0,0,0,0,1,0,0v-15A18.22,18.22,0,0,1,75.77,289.69Z"/><rect class="cls-3" x="57.55" y="312.86" width="40.08" height="10.08"/><path class="cls-3" d="M89.51,280.28v12.47a18.15,18.15,0,0,0-10.11-3.06H75.77a18.12,18.12,0,0,0-10.1,3.06V280.28a11.92,11.92,0,0,1,23.84,0Z"/><path class="cls-3" d="M128.67,232.16h25.82a0,0,0,0,1,0,0v4.61a5.35,5.35,0,0,1-5.35,5.35H134a5.35,5.35,0,0,1-5.35-5.35v-4.61A0,0,0,0,1,128.67,232.16Z"/><path class="cls-3" d="M148.74,242.12v28.63a11.92,11.92,0,0,0-14.32,0V242.12Z"/><path class="cls-3" d="M139.76,289.69h3.63a18.22,18.22,0,0,1,18.22,18.22v15a0,0,0,0,1,0,0H121.54a0,0,0,0,1,0,0v-15A18.22,18.22,0,0,1,139.76,289.69Z"/><rect class="cls-3" x="121.54" y="312.86" width="40.08" height="10.08"/><path class="cls-3" d="M153.5,280.28v12.47a18.15,18.15,0,0,0-10.11-3.06h-3.63a18.12,18.12,0,0,0-10.1,3.06V280.28a11.92,11.92,0,1,1,23.84,0Z"/><path class="cls-8" d="M14.8,131.48a33.84,33.84,0,0,0,11.78,25.66,15.91,15.91,0,0,0-4.22,10.79c0,.29,0,.59,0,.88a45.68,45.68,0,0,1,7.9-79.17V103A33.93,33.93,0,0,0,14.8,131.48Z"/><path class="cls-8" d="M38.22,183.83V152a15.9,15.9,0,0,0-15.86,15.9h0A15.9,15.9,0,0,0,38.22,183.83Z"/><path class="cls-8" d="M204.36,131.48a33.81,33.81,0,0,1-11.78,25.66,15.91,15.91,0,0,1,4.22,10.79,8.63,8.63,0,0,1,0,.88,45.68,45.68,0,0,0-7.9-79.17V103A33.9,33.9,0,0,1,204.36,131.48Z"/><path class="cls-8" d="M180.94,183.83V152a15.89,15.89,0,0,1,15.86,15.9h0A15.89,15.89,0,0,1,180.94,183.83Z"/><path class="cls-3" d="M14.8,131.48a33.84,33.84,0,0,0,11.78,25.66,15.91,15.91,0,0,0-4.22,10.79c0,.29,0,.59,0,.88a45.68,45.68,0,0,1,7.9-79.17V103A33.93,33.93,0,0,0,14.8,131.48Z"/><path class="cls-3" d="M38.22,183.83V152a15.9,15.9,0,0,0-15.86,15.9h0A15.9,15.9,0,0,0,38.22,183.83Z"/><path class="cls-3" d="M204.36,131.48a33.81,33.81,0,0,1-11.78,25.66,15.91,15.91,0,0,1,4.22,10.79,8.63,8.63,0,0,1,0,.88,45.68,45.68,0,0,0-7.9-79.17V103A33.9,33.9,0,0,1,204.36,131.48Z"/><path class="cls-3" d="M180.94,183.83V152a15.89,15.89,0,0,1,15.86,15.9h0A15.89,15.89,0,0,1,180.94,183.83Z"/></g></g></svg>